<?xml version="1.0" encoding="UTF-8" standalone="no"?>
<!-- Created with Inkscape (http://www.inkscape.org/) -->

<svg
   xmlns:dc="http://purl.org/dc/elements/1.1/"
   xmlns:cc="http://creativecommons.org/ns#"
   xmlns:rdf="http://www.w3.org/1999/02/22-rdf-syntax-ns#"
   xmlns:svg="http://www.w3.org/2000/svg"
   xmlns="http://www.w3.org/2000/svg"
   xmlns:sodipodi="http://sodipodi.sourceforge.net/DTD/sodipodi-0.dtd"
   xmlns:inkscape="http://www.inkscape.org/namespaces/inkscape"
   width="210mm"
   height="297mm"
   viewBox="0 0 744.09448819 1052.3622047"
   id="svg2"
   version="1.1"
   inkscape:version="0.91 r13725"
   sodipodi:docname="rock.svg">
  <defs
     id="defs4" />
  <sodipodi:namedview
     id="base"
     pagecolor="#ffffff"
     bordercolor="#666666"
     borderopacity="1.0"
     inkscape:pageopacity="0.0"
     inkscape:pageshadow="2"
     inkscape:zoom="5.731304"
     inkscape:cx="243.95677"
     inkscape:cy="606.20493"
     inkscape:document-units="px"
     inkscape:current-layer="g4156"
     showgrid="false"
     inkscape:window-width="1920"
     inkscape:window-height="1017"
     inkscape:window-x="1912"
     inkscape:window-y="-8"
     inkscape:window-maximized="1" />
  <metadata
     id="metadata7">
    <rdf:RDF>
      <cc:Work
         rdf:about="">
        <dc:format>image/svg+xml</dc:format>
        <dc:type
           rdf:resource="http://purl.org/dc/dcmitype/StillImage" />
        <dc:title></dc:title>
      </cc:Work>
    </rdf:RDF>
  </metadata>
  <g
     inkscape:label="Layer 1"
     inkscape:groupmode="layer"
     id="layer1">
    <g
       id="g4156"
       style="fill:#00ffff;stroke:#000000;stroke-opacity:1;stroke-linejoin:round;stroke-linecap:square">
      <path
         style="opacity:1;fill:#b4bbc0;fill-opacity:1;stroke:#000000;stroke-linecap:square;stroke-linejoin:round;stroke-opacity:1"
         d="m 304.46823,451.8008 c 0,4.28914 3.3485,3.78208 1.02077,8.9832 -2.62108,5.85659 -1.80183,11.95241 -7.24426,15.29843 -11.98493,7.36837 -32.24868,2.9373 -51.70398,2.9373 -17.94974,0 -39.27124,4.24931 -51.09289,-2.14895 -6.79874,-3.6797 -9.84357,-11.44309 -9.24412,-17.47623 0.45661,-4.59553 3.97985,-7.30822 3.97984,-11.6068 0,-7.22384 2.16097,-10.56883 6.90794,-16.80438 2.89047,-3.79686 4.36201,4.71097 9.34396,-10.45787 2.53575,-7.72076 13.51656,-5.09789 25.07504,-5.59541 5.37155,-0.23121 12.22984,-4.30666 16.94951,-4.30666 11.90028,0 9.2746,8.367 18.88897,11.40212 1.44374,0.45577 11.14145,-4.14946 13.31364,-5.42827 7.65102,-4.5043 16.17905,8.35649 18.937,9.85941 21.12727,11.51312 5.09916,12.95466 5.04395,15.92123 -0.17537,9.42288 -0.17537,3.47507 -0.17537,9.42288 z"
         id="path4160"
         inkscape:connector-curvature="0"
         sodipodi:nodetypes="ssssssssssssssss" />
    </g>
  </g>
</svg>
